<svg xmlns="http://www.w3.org/2000/svg" version="1.1" xmlns:xlink="http://www.w3.org/1999/xlink" xmlns:svgjs="http://svgjs.dev/svgjs" width="1500" height="1500" viewBox="0 0 1500 1500"><rect width="1500" height="1500" fill="#000000"></rect><g transform="matrix(0.6666666666666666,0,0,0.6666666666666666,249.13782188880487,417.5978494623657)"><svg viewBox="0 0 374 248" data-background-color="#eae5df" preserveAspectRatio="xMidYMid meet" height="994" width="1500" xmlns="http://www.w3.org/2000/svg" xmlns:xlink="http://www.w3.org/1999/xlink"><g id="tight-bounds" transform="matrix(1,0,0,1,0.32245461358698435,0.4000000000000057)"><svg viewBox="0 0 373.35509077282603 247.2" height="247.2" width="373.35509077282603"><g><svg viewBox="0 0 395.52 261.8754810537491" height="247.2" width="373.35509077282603"><g transform="matrix(1,0,0,1,0,157.66024537952865)"><svg viewBox="0 0 395.52 104.21523567422047" height="104.21523567422047" width="395.52"><g id="textblocktransform"><svg viewBox="0 0 395.52 104.21523567422047" height="104.21523567422047" width="395.52" id="textblock"><g><svg viewBox="0 0 395.52 57.75593316455696" height="57.75593316455696" width="395.52"><g transform="matrix(1,0,0,1,0,0)"><svg width="395.52" viewBox="2.69 -34.67 241.06 35.21" height="57.75593316455696" data-palette-color="#5b494d"><path d="M14.01-15.31L14.01-15.31Q12.06-15.31 12.06-9.72L12.06-9.72Q12.06-6.79 12.5-5.16 12.94-3.54 13.23-3.03L13.23-3.03 13.67-2.44Q14.26-1.64 14.26-1.42L14.26-1.42Q14.26-0.59 13.04-0.29 11.82 0 7.25 0 2.69 0 2.69-0.95L2.69-0.95Q2.69-1.59 4.1-2.56 5.52-3.54 5.85-5.46 6.18-7.37 6.18-16.97 6.18-26.56 5.8-28.43 5.42-30.3 4.49-31.25L4.49-31.25 3.91-31.79Q2.88-32.71 2.88-32.89L2.88-32.89Q2.88-34.16 7.47-34.16L7.47-34.16 8.57-34.13 9.72-34.13Q14.5-34.13 14.5-33.11L14.5-33.11Q14.5-32.62 13.73-31.64 12.96-30.66 12.79-30L12.79-30Q12.16-27.69 12.16-21.41L12.16-21.41Q12.16-18.82 13.13-18.82L13.13-18.82Q13.53-18.82 14.58-19.65L14.58-19.65Q16.97-21.53 20.21-25.45 23.46-29.37 23.46-30.88L23.46-30.88 23.41-31.54 23.27-32.15 23.14-32.74Q23.14-33.52 24.05-33.76 24.95-34.01 27.76-34.01L27.76-34.01Q32.06-34.01 32.06-32.79L32.06-32.79Q32.06-32.5 29.58-30.73 27.1-28.96 24.9-26.61L24.9-26.61Q19.6-20.97 19.6-19.19L19.6-19.19Q19.6-18.21 27.56-7.84L27.56-7.84Q29.54-5.27 31.79-3.33 34.03-1.39 34.03-1.1L34.03-1.1Q34.03 0.02 29.44 0.02L29.44 0.02 28.37 0.02Q25.85 0.02 25.02-0.74 24.19-1.51 23.66-2.91L23.66-2.91Q22.51-5.88 19.07-10.6 15.63-15.31 14.01-15.31ZM46.75-31.88L46.75-31.35Q46.75-30.27 45.83-29.36 44.92-28.44 44.02-28.44L44.02-28.44Q43.82-28.39 43.7-28.39L43.7-28.39 43.16-28.34Q41.94-28.34 40.98-29.15 40.01-29.96 40.01-31.23L40.01-31.23 40.01-31.67Q40.01-32.93 41.03-33.8 42.04-34.67 43.36-34.67L43.36-34.67 43.48-34.67 44.31-34.57Q45.07-34.57 45.88-33.75 46.7-32.93 46.7-32.1L46.7-32.1 46.75-31.88ZM38.99-20.46Q37.72-21.07 37.72-21.61 37.72-22.14 38.23-22.46L38.23-22.46Q40.01-23.54 43.87-23.54L43.87-23.54 44.58-23.54Q45.9-23.54 46.07-22.31L46.07-22.31Q46.16-21.66 46.16-13.44 46.16-5.22 46.51-4.02 46.85-2.81 48.14-2.16 49.44-1.51 49.44-0.85L49.44-0.85Q49.44 0.07 43.38 0.07L43.38 0.07 42.65 0.1 39.67 0.1Q37.89 0.1 37.89-0.78L37.89-0.78Q37.89-1.51 38.97-2.2 40.06-2.88 40.48-3.71L40.48-3.71Q40.94-4.61 40.94-7.93L40.94-7.93 40.96-8.72 40.96-9.47 40.99-10.62 40.99-11.38 41.01-12.13Q41.01-17.92 40.63-18.88 40.26-19.85 38.99-20.46ZM69.31-10.96Q71.24-9.13 71.24-6.34 71.24-3.54 68.94-1.55 66.65 0.44 62.59 0.44L62.59 0.44 61.93 0.44Q57.32 0.44 54.9-0.71L54.9-0.71Q53.56-1.34 53.56-3.54L53.56-3.54 53.56-4.15Q53.56-6.96 54.61-6.96L54.61-6.96Q55.49-6.96 56.68-5.31 57.88-3.66 58.69-3.1L58.69-3.1Q60.25-2.03 62.36-2.03 64.47-2.03 65.47-2.92 66.47-3.81 66.47-5.27 66.47-6.74 64.77-7.98L64.77-7.98Q63.86-8.64 60.55-10.06 57.25-11.47 55.61-13.02 53.97-14.58 53.97-17.41 53.97-20.24 56.34-22.01 58.71-23.78 62.18-23.78L62.18-23.78 62.84-23.78Q67.38-23.78 69.21-22.71L69.21-22.71Q70.16-22.14 70.16-19.58 70.16-17.02 68.94-17.02L68.94-17.02Q68.26-17.02 67.07-18.54 65.89-20.07 64.91-20.72 63.94-21.36 62.21-21.36 60.49-21.36 59.49-20.58 58.49-19.8 58.49-18.32 58.49-16.85 60.32-15.67L60.32-15.67Q60.79-15.36 64.37-13.79 67.96-12.23 69.31-10.96L69.31-10.96ZM88.2-11.3L88.2-11.3 87.79-11.3Q84.59-11.3 82.45-9.88 80.31-8.45 80.31-6.32L80.31-6.32 80.31-5.83Q80.31-4.59 81.08-3.6 81.85-2.61 83.07-2.61L83.07-2.61 83.37-2.56 84.1-2.56Q86.64-2.56 88.25-4.64L88.25-4.64Q88.96-5.54 88.96-8.35L88.96-8.35Q88.96-8.57 88.96-8.79L88.96-8.79 88.98-9.38 88.98-9.96Q88.98-11.3 88.2-11.3ZM76.34-19.19L76.34-19.19Q76.34-21 79.2-22.42 82.07-23.85 85.15-23.85L85.15-23.85Q85.25-23.85 85.34-23.85L85.34-23.85Q88.27-23.85 90.03-23.14L90.03-23.14Q93.6-21.73 94.11-17.14L94.11-17.14Q94.16-16.67 94.16-11 94.16-5.32 94.46-4.35 94.77-3.37 96.12-2.91 97.48-2.44 97.48-2.03L97.48-2.03Q97.48-1.15 96.6-0.68L96.6-0.68Q94.84 0.24 93.14 0.24 91.45 0.24 90.62-0.54L90.62-0.54Q89.13-1.93 89.03-1.93 88.93-1.93 86.27-0.7 83.61 0.54 81.61 0.54L81.61 0.54Q78.61 0.54 76.9-1.12 75.19-2.78 75.19-5.15L75.19-5.15 75.19-5.76Q75.19-8.3 77.39-10.23 79.58-12.16 85.3-13.23L85.3-13.23Q87.37-13.62 87.91-13.96L87.91-13.96Q88.98-14.65 88.98-16.75 88.98-18.85 87.86-19.97 86.74-21.09 84.86-21.09 82.98-21.09 81.23-18.91 79.48-16.72 78.04-16.72L78.04-16.72Q76.34-16.72 76.34-19.19ZM106.29-0.2L104.78-0.2Q101.33-0.2 101.33-1.17L101.33-1.17Q101.33-1.98 102.24-2.49L102.24-2.49Q103.87-3.42 104.14-4.16 104.41-4.91 104.41-11.22 104.41-17.53 104.03-18.62 103.65-19.7 102.65-20.41 101.65-21.12 101.65-21.56 101.65-22 102.31-22.39L102.31-22.39Q103.85-23.29 107.19-23.29L107.19-23.29Q108.19-23.29 108.75-22.61L108.75-22.61Q108.95-22.36 109.3-21.55 109.66-20.73 109.78-20.73L109.78-20.73Q110.24-20.75 111.22-21.39L111.22-21.39Q114.59-23.66 117.32-23.66L117.32-23.66 117.37-23.66 118.15-23.66Q120.13-23.66 121.72-22.68 123.31-21.7 124.17-19.75 125.04-17.8 125.04-11.24 125.04-4.69 125.32-3.92 125.6-3.15 126.91-2.49 128.21-1.83 128.21-1.2L128.21-1.2Q128.21-0.1 121.28-0.1L121.28-0.1 120.55-0.1Q118.35-0.1 118.35-1.15L118.35-1.15Q118.35-1.37 118.89-2.21 119.42-3.05 119.62-4.08 119.81-5.1 119.81-10.83 119.81-16.55 119.11-18.19L119.11-18.19Q118.13-20.43 115.86-20.43L115.86-20.43Q114.2-20.43 112.65-19.67 111.1-18.9 110.4-17.49 109.71-16.09 109.71-10.78 109.71-5.47 110-4.36 110.29-3.25 110.71-2.56L110.71-2.56 111.61-1.1Q111.61-0.15 107.78-0.15L107.78-0.15 106.29-0.2ZM165.51-10.45L165.51-10.45Q165.85-10.45 170.25-19.93 174.64-29.42 175.67-30.98 176.69-32.54 178.04-33.09 179.38-33.64 182.32-33.64 185.26-33.64 185.26-32.28L185.26-32.28 184.68-31.54 183.92-30.74Q183.19-29.79 182.88-28.53 182.58-27.27 182.58-24.39L182.58-24.39Q182.58-12.13 183.21-6.52L183.21-6.52Q183.46-4.32 184.8-3.06 186.14-1.81 186.14-1.39L186.14-1.39 185.53-0.95Q184.36-0.42 180.92-0.42 177.48-0.42 176.6-1.32L176.6-1.32 176.35-1.86Q176.35-2.56 176.89-4.77 177.43-6.98 177.43-9.18L177.43-9.18Q177.43-25.2 176.4-25.2L176.4-25.2Q175.89-25.2 171.74-15.28 167.59-5.37 166.65-3.65 165.71-1.93 164.17-1.93L164.17-1.93Q163.1-1.93 158.3-13.66 153.5-25.39 152.67-25.39L152.67-25.39Q151.99-25.39 151.99-13.4L151.99-13.4Q151.99-8.08 152.16-6.86 152.33-5.64 152.73-3.93 153.13-2.22 153.13-1.66 153.13-1.1 152.38-0.73 151.62-0.37 150.42-0.37L150.42-0.37 149.08-0.37Q145.05-0.37 145.05-1.39L145.05-1.39Q145.05-1.9 146.43-3.09 147.81-4.27 148.04-5.14 148.28-6.01 148.67-13.93 149.06-21.85 149.06-24.68 149.06-27.51 148.72-28.63 148.37-29.74 147.14-30.96 145.91-32.18 145.91-32.81L145.91-32.81Q145.91-33.59 150.42-33.59L150.42-33.59Q152.16-33.59 153.43-33.12 154.7-32.64 155.93-30.85 157.16-29.05 161.09-19.75 165.02-10.45 165.51-10.45ZM200.06-31.88L200.06-31.35Q200.06-30.27 199.14-29.36 198.22-28.44 197.32-28.44L197.32-28.44Q197.13-28.39 197-28.39L197-28.39 196.47-28.34Q195.25-28.34 194.28-29.15 193.32-29.96 193.32-31.23L193.32-31.23 193.32-31.67Q193.32-32.93 194.33-33.8 195.34-34.67 196.66-34.67L196.66-34.67 196.78-34.67 197.61-34.57Q198.37-34.57 199.19-33.75 200.01-32.93 200.01-32.1L200.01-32.1 200.06-31.88ZM192.29-20.46Q191.02-21.07 191.02-21.61 191.02-22.14 191.54-22.46L191.54-22.46Q193.32-23.54 197.17-23.54L197.17-23.54 197.88-23.54Q199.2-23.54 199.37-22.31L199.37-22.31Q199.47-21.66 199.47-13.44 199.47-5.22 199.81-4.02 200.15-2.81 201.45-2.16 202.74-1.51 202.74-0.85L202.74-0.85Q202.74 0.07 196.69 0.07L196.69 0.07 195.95 0.1 192.98 0.1Q191.19 0.1 191.19-0.78L191.19-0.78Q191.19-1.51 192.28-2.2 193.37-2.88 193.78-3.71L193.78-3.71Q194.25-4.61 194.25-7.93L194.25-7.93 194.27-8.72 194.27-9.47 194.29-10.62 194.29-11.38 194.32-12.13Q194.32-17.92 193.94-18.88 193.56-19.85 192.29-20.46ZM217.22-3.22L217.22-3.22 220.93-3.78Q221.56-3.78 221.56-2.8 221.56-1.81 219.68-0.76 217.8 0.29 215.73 0.29L215.73 0.29 215.24 0.29Q213.6 0.29 212.28-0.56 210.97-1.42 210.36-2.66L210.36-2.66Q209.31-4.83 209.31-10.9 209.31-16.97 208.88-18.48 208.45-20 207.77-20.56L207.77-20.56Q206.5-21.58 206.5-21.68L206.5-21.68Q206.5-22.31 207.16-22.75L207.16-22.75Q208.84-23.88 209-24.04 209.16-24.19 210.87-28.03L210.87-28.03Q211.72-29.93 212.81-29.93 213.9-29.93 214.26-29.15L214.26-29.15Q214.36-28.96 214.69-27.03 215.02-25.1 215.63-24.55 216.24-24 218.34-23.5 220.44-23 220.44-22.07 220.44-21.14 218.12-20.68 215.8-20.21 215.31-19.48L215.31-19.48Q214.46-18.24 214.46-12.45 214.46-6.67 214.99-5.15L214.99-5.15Q215.68-3.22 217.22-3.22ZM237.38-0.95L237.38-0.95Q237.38 0 232.96 0L232.96 0 230.37 0 229.35-0.05 227.81-0.07Q225.22-0.07 225.22-1L225.22-1Q225.22-1.66 226.38-2.4 227.54-3.15 227.94-4.33 228.35-5.52 228.35-11.33 228.35-17.14 227.97-18.38 227.59-19.63 226.78-20.17L226.78-20.17Q225.34-21.12 225.34-21.56 225.34-22 225.86-22.34L225.86-22.34Q227.37-23.36 230.98-23.36L230.98-23.36 231.45-23.36Q232.84-23.36 233.42-21.96 234.01-20.56 234.38-20.56 234.74-20.56 235.63-21.24 236.53-21.92 237.78-22.61 239.04-23.29 240.58-23.29 242.12-23.29 242.93-22.5 243.75-21.7 243.75-20.46L243.75-20.46Q243.73-19.19 243.09-18.55 242.46-17.92 241.73-17.92 240.99-17.92 239.8-18.52 238.6-19.12 237.79-19.12 236.99-19.12 236.04-18.44 235.08-17.77 234.41-16.05 233.74-14.33 233.74-10.17 233.74-6.01 234.33-4.8 234.91-3.59 236.15-2.59 237.38-1.59 237.38-0.95Z" opacity="1" transform="matrix(1,0,0,1,0,0)" fill="#ffffff" class="wordmark-text-0" data-fill-palette-color="primary" id="text-0"></path></svg></g></svg></g><g transform="matrix(1,0,0,1,0,71.39072284231291)"><svg viewBox="0 0 395.52 32.82451283190756" height="32.82451283190756" width="395.52"><g transform="matrix(1,0,0,1,0,0)"><svg width="395.52" viewBox="0 -36.75 450.01 37.35" height="32.82451283190756" data-palette-color="#be959f"><path d="M7.7 0.6L7.7 0.6Q5.4 0.6 3.38-0.2 1.35-1 0-2.3L0-2.3 2.3-5.95Q3.3-4.9 4.7-4.2 6.1-3.5 7.55-3.5L7.55-3.5Q9.95-3.5 11.35-5.23 12.75-6.95 12.75-11.05L12.75-11.05 12.75-35 17.5-35 17.5-11.55Q17.5-5.2 14.8-2.3 12.1 0.6 7.7 0.6ZM35.45 0.6L35.45 0.6Q32.2 0.6 29.55-1.05 26.9-2.7 25.32-5.73 23.75-8.75 23.75-12.85L23.75-12.85Q23.75-16.75 25.32-19.85 26.9-22.95 29.67-24.78 32.45-26.6 36.05-26.6L36.05-26.6Q38.3-26.6 40.12-25.83 41.95-25.05 43.3-23.9L43.3-23.9 43.3-26 47.4-26 47.4-6.3Q47.4-4.4 48.32-3.83 49.25-3.25 50.35-3.25L50.35-3.25 49.4 0.25Q44.6 0.25 43.6-3.65L43.6-3.65Q42.45-2.05 40.47-0.73 38.5 0.6 35.45 0.6ZM36.45-3.4L36.45-3.4Q38.35-3.4 40.05-4.33 41.75-5.25 42.9-6.65L42.9-6.65 42.9-20.6Q41.55-21.55 39.92-22.13 38.3-22.7 36.5-22.7L36.5-22.7Q34.1-22.7 32.27-21.48 30.45-20.25 29.4-18.07 28.35-15.9 28.35-13L28.35-13Q28.35-10.2 29.4-8.03 30.45-5.85 32.3-4.63 34.15-3.4 36.45-3.4ZM60.84 0L56.34 0 56.34-26 60.84-26 60.84 0ZM58.59-30.45L58.59-30.45Q57.3-30.45 56.37-31.4 55.45-32.35 55.45-33.6L55.45-33.6Q55.45-35.05 56.3-35.9 57.14-36.75 58.59-36.75L58.59-36.75Q59.89-36.75 60.82-35.83 61.74-34.9 61.74-33.6L61.74-33.6Q61.74-32.2 60.89-31.33 60.05-30.45 58.59-30.45ZM87.54 0.6L87.54 0.6Q85.24 0.6 83.22-0.2 81.19-1 79.84-2.3L79.84-2.3 82.14-5.95Q83.14-4.9 84.54-4.2 85.94-3.5 87.39-3.5L87.39-3.5Q89.79-3.5 91.19-5.23 92.59-6.95 92.59-11.05L92.59-11.05 92.59-35 97.34-35 97.34-11.55Q97.34-5.2 94.64-2.3 91.94 0.6 87.54 0.6ZM115.29 0.6L115.29 0.6Q112.04 0.6 109.39-1.05 106.74-2.7 105.16-5.73 103.59-8.75 103.59-12.85L103.59-12.85Q103.59-16.75 105.16-19.85 106.74-22.95 109.51-24.78 112.29-26.6 115.89-26.6L115.89-26.6Q118.14-26.6 119.96-25.83 121.79-25.05 123.14-23.9L123.14-23.9 123.14-26 127.24-26 127.24-6.3Q127.24-4.4 128.16-3.83 129.09-3.25 130.19-3.25L130.19-3.25 129.24 0.25Q124.44 0.25 123.44-3.65L123.44-3.65Q122.29-2.05 120.31-0.73 118.34 0.6 115.29 0.6ZM116.29-3.4L116.29-3.4Q118.19-3.4 119.89-4.33 121.59-5.25 122.74-6.65L122.74-6.65 122.74-20.6Q121.39-21.55 119.76-22.13 118.14-22.7 116.34-22.7L116.34-22.7Q113.94-22.7 112.11-21.48 110.29-20.25 109.24-18.07 108.19-15.9 108.19-13L108.19-13Q108.19-10.2 109.24-8.03 110.29-5.85 112.14-4.63 113.99-3.4 116.29-3.4ZM146.09 0L141.13 0 132.94-24.8 137.09-26.25 143.78-5.1 149.88-24.15 154.74-24.15 160.69-5.1 167.34-26.25 171.34-24.8 163.09 0 158.13 0 152.13-19.35 146.09 0ZM186.03 0.6L186.03 0.6Q182.78 0.6 180.13-1.05 177.48-2.7 175.91-5.73 174.33-8.75 174.33-12.85L174.33-12.85Q174.33-16.75 175.91-19.85 177.48-22.95 180.26-24.78 183.03-26.6 186.63-26.6L186.63-26.6Q188.88-26.6 190.71-25.83 192.53-25.05 193.88-23.9L193.88-23.9 193.88-26 197.98-26 197.98-6.3Q197.98-4.4 198.91-3.83 199.83-3.25 200.93-3.25L200.93-3.25 199.98 0.25Q195.18 0.25 194.18-3.65L194.18-3.65Q193.03-2.05 191.06-0.73 189.08 0.6 186.03 0.6ZM187.03-3.4L187.03-3.4Q188.93-3.4 190.63-4.33 192.33-5.25 193.48-6.65L193.48-6.65 193.48-20.6Q192.13-21.55 190.51-22.13 188.88-22.7 187.08-22.7L187.08-22.7Q184.68-22.7 182.86-21.48 181.03-20.25 179.98-18.07 178.93-15.9 178.93-13L178.93-13Q178.93-10.2 179.98-8.03 181.03-5.85 182.88-4.63 184.73-3.4 187.03-3.4ZM211.43 0L206.93 0 206.93-26 211.28-26 211.28-21.65Q212.68-23.75 214.86-25.18 217.03-26.6 220.03-26.6L220.03-26.6Q224.43-26.6 226.61-23.95 228.78-21.3 228.78-16.95L228.78-16.95 228.78 0 224.28 0 224.28-16.45Q224.28-19.25 222.96-20.95 221.63-22.65 219.28-22.65L219.28-22.65Q216.98-22.65 214.93-21.03 212.88-19.4 211.43-17.2L211.43-17.2 211.43 0ZM255.22 0.6L255.22 0.6Q252.93 0.6 250.9-0.2 248.88-1 247.53-2.3L247.53-2.3 249.83-5.95Q250.83-4.9 252.22-4.2 253.63-3.5 255.08-3.5L255.08-3.5Q257.48-3.5 258.88-5.23 260.27-6.95 260.27-11.05L260.27-11.05 260.27-35 265.02-35 265.02-11.55Q265.02-5.2 262.32-2.3 259.63 0.6 255.22 0.6ZM282.97 0.6L282.97 0.6Q279.72 0.6 277.07-1.05 274.42-2.7 272.85-5.73 271.27-8.75 271.27-12.85L271.27-12.85Q271.27-16.75 272.85-19.85 274.42-22.95 277.2-24.78 279.97-26.6 283.57-26.6L283.57-26.6Q285.82-26.6 287.65-25.83 289.47-25.05 290.82-23.9L290.82-23.9 290.82-26 294.92-26 294.92-6.3Q294.92-4.4 295.85-3.83 296.77-3.25 297.87-3.25L297.87-3.25 296.92 0.25Q292.12 0.25 291.12-3.65L291.12-3.65Q289.97-2.05 288-0.73 286.02 0.6 282.97 0.6ZM283.97-3.4L283.97-3.4Q285.87-3.4 287.57-4.33 289.27-5.25 290.42-6.65L290.42-6.65 290.42-20.6Q289.07-21.55 287.45-22.13 285.82-22.7 284.02-22.7L284.02-22.7Q281.62-22.7 279.8-21.48 277.97-20.25 276.92-18.07 275.87-15.9 275.87-13L275.87-13Q275.87-10.2 276.92-8.03 277.97-5.85 279.82-4.63 281.67-3.4 283.97-3.4ZM308.37 0L303.87 0 303.87-26 308.37-26 308.37 0ZM306.12-30.45L306.12-30.45Q304.82-30.45 303.89-31.4 302.97-32.35 302.97-33.6L302.97-33.6Q302.97-35.05 303.82-35.9 304.67-36.75 306.12-36.75L306.12-36.75Q307.42-36.75 308.35-35.83 309.27-34.9 309.27-33.6L309.27-33.6Q309.27-32.2 308.42-31.33 307.57-30.45 306.12-30.45ZM356.92-2.8L353.62 0.6 336.62-16.1 336.62 0 331.87 0 331.87-35 336.62-35 336.62-19.05 351.51-35.15 354.72-32.2 341.06-18 356.92-2.8ZM365.91 0L361.41 0 361.41-26 365.91-26 365.91 0ZM363.66-30.45L363.66-30.45Q362.36-30.45 361.44-31.4 360.51-32.35 360.51-33.6L360.51-33.6Q360.51-35.05 361.36-35.9 362.21-36.75 363.66-36.75L363.66-36.75Q364.96-36.75 365.89-35.83 366.81-34.9 366.81-33.6L366.81-33.6Q366.81-32.2 365.96-31.33 365.11-30.45 363.66-30.45ZM380.91 0.6L380.91 0.6Q377.96 0.6 375.59-0.15 373.21-0.9 371.66-2.1L371.66-2.1 373.56-5.85Q374.86-4.75 376.84-4.03 378.81-3.3 381.06-3.3L381.06-3.3Q383.86-3.3 385.29-4.23 386.71-5.15 386.71-6.6L386.71-6.6Q386.71-7.65 386.19-8.45 385.66-9.25 384.26-10.03 382.86-10.8 380.21-11.7L380.21-11.7Q376.56-12.95 374.74-14.68 372.91-16.4 372.91-19.45L372.91-19.45Q372.91-22.45 375.54-24.53 378.16-26.6 382.81-26.6L382.81-26.6Q385.31-26.6 387.26-26.08 389.21-25.55 390.76-24.75L390.76-24.75 389.51-21.05Q388.16-21.85 386.44-22.35 384.71-22.85 382.61-22.85L382.61-22.85Q380.01-22.85 378.66-21.8 377.31-20.75 377.31-19.5L377.31-19.5Q377.31-18.3 378.36-17.45 379.41-16.6 382.46-15.6L382.46-15.6Q387.41-13.95 389.36-11.95 391.31-9.95 391.31-6.95L391.31-6.95Q391.31-3.45 388.49-1.43 385.66 0.6 380.91 0.6ZM407.26 0.6L407.26 0.6Q404.01 0.6 401.36-1.05 398.71-2.7 397.13-5.73 395.56-8.75 395.56-12.85L395.56-12.85Q395.56-16.75 397.13-19.85 398.71-22.95 401.48-24.78 404.26-26.6 407.86-26.6L407.86-26.6Q410.11-26.6 411.93-25.83 413.76-25.05 415.11-23.9L415.11-23.9 415.11-26 419.21-26 419.21-6.3Q419.21-4.4 420.13-3.83 421.06-3.25 422.16-3.25L422.16-3.25 421.21 0.25Q416.41 0.25 415.41-3.65L415.41-3.65Q414.26-2.05 412.28-0.73 410.31 0.6 407.26 0.6ZM408.26-3.4L408.26-3.4Q410.16-3.4 411.86-4.33 413.56-5.25 414.71-6.65L414.71-6.65 414.71-20.6Q413.36-21.55 411.73-22.13 410.11-22.7 408.31-22.7L408.31-22.7Q405.91-22.7 404.08-21.48 402.26-20.25 401.21-18.07 400.16-15.9 400.16-13L400.16-13Q400.16-10.2 401.21-8.03 402.26-5.85 404.11-4.63 405.96-3.4 408.26-3.4ZM432.66 0L428.16 0 428.16-26 432.51-26 432.51-21.65Q433.91-23.75 436.08-25.18 438.26-26.6 441.26-26.6L441.26-26.6Q445.66-26.6 447.83-23.95 450.01-21.3 450.01-16.95L450.01-16.95 450.01 0 445.51 0 445.51-16.45Q445.51-19.25 444.18-20.95 442.86-22.65 440.51-22.65L440.51-22.65Q438.21-22.65 436.16-21.03 434.11-19.4 432.66-17.2L432.66-17.2 432.66 0Z" opacity="1" transform="matrix(1,0,0,1,0,0)" fill="#ffffff" class="slogan-text-1" data-fill-palette-color="secondary" id="text-1"></path></svg></g></svg></g></svg></g></svg></g><g transform="matrix(1,0,0,1,121.30360528573124,0)"><svg viewBox="0 0 152.9127894285375 144.0254557017727" height="144.0254557017727" width="152.9127894285375"><g><svg xmlns="http://www.w3.org/2000/svg" xmlns:xlink="http://www.w3.org/1999/xlink" version="1.1" x="8" y="0" viewBox="7.263636363636364 3.464719718913835 145.57272727272726 153.13528028108615" style="enable-background:new 0 0 160 160;" xml:space="preserve" height="144.0254557017727" width="136.9127894285375" class="icon-icon-0" data-fill-palette-color="accent" id="icon-0"><g fill="#13472e" data-fill-palette-color="accent"><rect x="27.3" y="140.9" transform="matrix(0.27 -0.9629 0.9629 0.27 -111.6068 138.53)" width="16.5" height="4" fill="#ffffff" data-fill-palette-color="accent"></rect><rect x="122.4" y="134.6" transform="matrix(0.9628 -0.2701 0.2701 0.9628 -33.968 38.9285)" width="4" height="16.5" fill="#ffffff" data-fill-palette-color="accent"></rect><rect x="78" y="137.8" width="4" height="18.1" fill="#ffffff" data-fill-palette-color="accent"></rect><path d="M12.1 104.1C11.2 102.2 11 100.1 11.5 98.1L16.1 81.7C16.6 80 17.9 78.8 19.4 78.7L35.7 77C36.3 76.9 36.9 77.1 37.4 77.6 38 78.1 38.4 79 38.4 79.9V80.5C38.4 80.6 38.4 80.8 38.3 80.9L38.4 80.8 43.4 77.6 50 54.5C50.3 53.4 51 52.5 51.9 52.1 52.7 51.7 53.6 51.6 54.4 51.9 56.4 52.6 57.5 55 56.9 57.2L52.9 71.5 57.9 68.3 59.6 62.1C59.9 61 60.6 60.1 61.5 59.7 62.3 59.3 63.2 59.2 64 59.5 65.4 60 66.3 61.3 66.6 62.8 67.8 62.1 69 61.5 70.3 61 69.5 58.6 67.8 56.6 65.4 55.8 64 55.3 62.5 55.3 61.1 55.7 60.9 52.4 58.9 49.3 55.8 48.3 53.9 47.6 51.9 47.8 50.1 48.7 48.2 49.7 46.8 51.4 46.2 53.5 45.4 52.6 44.3 51.9 43.1 51.4 41.2 50.7 39.2 50.9 37.4 51.8 35.5 52.8 34.1 54.6 33.5 56.7L28.8 73.6 19.1 74.6C15.9 74.9 13.3 77.3 12.4 80.5L7.7 97C6.9 100 7.2 103.1 8.6 105.9L16.7 122.2C17.4 123.6 17.6 125.3 17.1 126.8L12 144.9 15.9 146 21 127.9C21.7 125.4 21.4 122.7 20.3 120.4zM37.3 57.7C37.6 56.6 38.3 55.7 39.2 55.3 40 54.9 40.9 54.8 41.7 55.1 43.7 55.8 44.8 58.2 44.2 60.4L40.2 74.6C40.1 74.6 40.1 74.5 40 74.4 38.7 73.2 37 72.7 35.2 72.9L33 73.2z" fill="#ffffff" data-fill-palette-color="accent"></path><path d="M151.5 105.9C152.9 103.1 153.2 100 152.4 97L147.8 80.6C146.9 77.3 144.2 75 141.1 74.7L131.4 73.7 126.7 56.8C126.1 54.7 124.7 52.9 122.8 51.9 121 51 119 50.8 117.1 51.5 115.9 51.9 114.8 52.6 114 53.6 113.4 51.5 112 49.7 110.1 48.8 108.3 47.9 106.3 47.7 104.4 48.4 101.3 49.5 99.2 52.5 99.1 55.8 97.7 55.4 96.2 55.4 94.8 55.9 92.4 56.7 90.6 58.7 89.9 61.1 91.2 61.6 92.4 62.2 93.6 62.9 93.8 61.4 94.8 60.1 96.2 59.6 97 59.3 97.9 59.4 98.7 59.8 99.6 60.3 100.3 61.1 100.6 62.2L102.3 68.3 107.3 71.5 104.2 61 103.1 57.2C102.5 55 103.6 52.6 105.6 51.9 106.4 51.6 107.3 51.7 108.1 52.1 109 52.6 109.7 53.4 110 54.5L116.3 77.3 121.3 80.5 121.5 80.6V79.7C121.5 78.8 121.9 78 122.5 77.4 123 77 123.6 76.8 124.2 76.8L140.5 78.5C142 78.7 143.3 79.9 143.8 81.5L148.4 97.9C149 99.9 148.8 102.1 147.8 103.9L139.7 120.2C138.5 122.5 138.3 125.2 139 127.7L144.1 145.8 148 144.7 142.9 126.6C142.5 125.1 142.6 123.4 143.3 122zM124.7 72.9C123 72.7 121.3 73.3 119.9 74.4 119.8 74.4 119.8 74.5 119.7 74.6L115.7 60.4C115.1 58.2 116.2 55.8 118.2 55.1 119 54.8 119.9 54.9 120.7 55.3 121.6 55.8 122.3 56.6 122.6 57.7L126.9 73.1z" fill="#ffffff" data-fill-palette-color="accent"></path><path d="M42.9 35.6C48.3 41.7 55.8 45.9 63.9 47.3 65.3 47.6 66.7 47.7 68.2 47.7 70.7 47.7 73.2 47.3 75.6 46.6L78.2 45.8V62.2C74.6 62.5 71 63.7 67.8 65.7L36.6 85.7 37.8 86.4C38.7 86.9 39.6 87.4 40.5 88L69.7 69C76 65 84 65 90.3 69L119.8 87.8C120.6 87.2 121.5 86.7 122.4 86.2L123.7 85.5 92.4 65.7C89.2 63.7 85.6 62.5 81.9 62.2V33.7L84 34.4C86.4 35.2 88.9 35.5 91.3 35.5 92.7 35.5 94.2 35.4 95.6 35.1 103.7 33.7 111.1 29.5 116.6 23.4 120.3 19.2 125.2 16.2 130.7 14.9L134.2 14 131.4 11.2C125.4 5.4 117.1 2.6 109 3.7L107.5 4C98.6 5.2 90.7 9.8 85.2 16.7 83 19.5 81.3 22.6 80.2 25.9L78.8 30.1C78.3 31.6 78 33.2 78 34.9 77 32.8 75.8 30.8 74.3 28.9 68.8 21.9 60.8 17.4 52 16.2L50.7 16H50.5C42.4 14.9 34.1 17.7 28.1 23.5L25.3 26.3 28.8 27.2C34.2 28.5 39.1 31.4 42.9 35.6M88.3 19.2A30.7 30.7 0 0 1 108 8L109.5 7.8C115.4 7 121.4 8.6 126.2 12.2 121.4 14 117.1 17 113.6 20.8 108.8 26.2 102.1 29.9 94.9 31.2 91.9 31.7 88.8 31.6 85.8 30.7 90.5 24.7 100.1 14.5 100.1 14.5L99.9 14.6C93.8 17.4 88.4 21.5 84.1 26.5 85.2 23.9 86.5 21.4 88.3 19.2M50 19.9H50.1L51.4 20.1C59.2 21.2 66.2 25.2 71.1 31.4 72.8 33.5 74.1 35.9 75.1 38.5 71.2 35.3 66.6 32.9 61.6 31.8 61.6 31.8 69.9 39.2 73.5 42.4L74 42.8C70.9 43.8 67.6 44 64.4 43.4 57.2 42.1 50.6 38.4 45.7 33 42.2 29.1 37.9 26.2 33.1 24.4 38.1 20.8 44.1 19.1 50 19.9" fill="#ffffff" data-fill-palette-color="accent"></path><path d="M63.5 127.3L56.9 132.9C55.2 134.4 53.9 136.3 53.3 138.5L48.6 155.4 52.5 156.5 57.2 139.6C57.6 138.2 58.4 136.9 59.6 135.9L66.2 130.3C66.8 129.8 67.4 129.2 67.9 128.6V121.5C66.9 123.7 65.4 125.7 63.5 127.3" fill="#ffffff" data-fill-palette-color="accent"></path><path d="M103 132.9L96.4 127.3C94.5 125.7 93.1 123.8 92.1 121.6V128.7C92.6 129.3 93.2 129.9 93.8 130.4L100.4 136C101.5 137 102.4 138.2 102.8 139.7L107.5 156.6 111.4 155.5 106.7 138.6C106 136.3 104.8 134.4 103 132.9" fill="#ffffff" data-fill-palette-color="accent"></path><path d="M70.6 112.8L50.2 107.1C48.3 99.3 43.3 92.7 36.2 88.9L25.2 82.9 23.3 86.4 34.3 92.4C40.7 95.9 45.2 102 46.5 109.1L46.7 110.3 69.5 116.7 70.9 117.1V146.8H74.9V114L74.4 113.9z" fill="#ffffff" data-fill-palette-color="accent"></path><path d="M123.9 88.9C116.8 92.7 111.8 99.3 109.9 107.1L89.5 112.8 85.6 113.9 85.1 114V146.7H89.1V117L90.5 116.6 113.3 110.2 113.5 109C114.9 101.9 119.3 95.8 125.7 92.3L136.7 86.3 134.8 82.8z" fill="#ffffff" data-fill-palette-color="accent"></path></g></svg></g></svg></g><g><rect width="110.22115067214426" height="5.208489656902772" y="137.81696604486993" x="274.21639471426874" fill="#ffffff" data-fill-palette-color="accent"></rect><rect width="110.22115067214426" height="5.208489656902772" y="137.81696604486993" x="11.082454613586975" fill="#ffffff" data-fill-palette-color="accent"></rect><rect width="110.22115067214426" height="5.208489656902772" y="127.39998673106439" x="274.21639471426874" fill="#ffffff" data-fill-palette-color="accent"></rect><rect width="110.22115067214426" height="5.208489656902772" y="127.39998673106439" x="11.082454613586975" fill="#ffffff" data-fill-palette-color="accent"></rect></g></svg></g><defs></defs></svg><rect width="373.35509077282603" height="247.2" fill="none" stroke="none" visibility="hidden"></rect></g></svg></g></svg>